<svg width="61" height="45" viewBox="0 0 61 45" fill="none" xmlns="http://www.w3.org/2000/svg">
<path d="M43.55 24.2748C43.55 31.5009 37.4972 37.3833 30 37.3833C22.5028 37.3833 16.45 31.5009 16.45 24.2748C16.45 17.0486 22.5028 11.1662 30 11.1662C37.4972 11.1662 43.55 17.0486 43.55 24.2748Z" stroke="#FFBE5B" stroke-width="0.9"/>
<path d="M33 17.9797L37.5 11.2004L46 13.1374L43.5 18.9482L39.5 23.3063L33 17.9797Z" fill="white"/>
<path d="M14.5 31L19.5 27L22.5 29.5L24.5 33.7477L20.5 38.1059L14.5 31Z" fill="white"/>
<path d="M38.334 15.345H36.4248V14.5637H38.334V12.6448H39.1348V14.5637H41.0537V15.345H39.1348V17.2542H38.334V15.345Z" fill="#FC7373"/>
<path d="M40.6982 18.5726V17.7572H43.0859V18.5726H40.6982Z" fill="#FC7373"/>
<path d="M19.4 30C18.0746 30 17 31.1194 17 32.5C17 33.8806 18.0746 35 19.4 35C20.7254 35 21.7999 33.8806 21.7999 32.5C21.7999 32.046 21.6819 31.6215 21.4789 31.2545L19.2293 33.5974C19.1919 33.6364 19.1411 33.6584 19.0879 33.6584C19.0349 33.6584 18.9839 33.6366 18.9465 33.5974L18.0558 32.6697C17.9776 32.5882 17.9776 32.4565 18.0558 32.3751C18.134 32.2936 18.2605 32.2936 18.3387 32.3751L19.0879 33.1555L21.248 30.9054C20.8078 30.3522 20.1436 30 19.4 30ZM21.248 30.9054C21.3343 31.0138 21.4107 31.1317 21.4789 31.2545L21.9414 30.7723C22.0195 30.6906 22.0195 30.5592 21.9414 30.4777C21.8632 30.3962 21.7367 30.3962 21.6585 30.4777L21.248 30.9054Z" fill="#536DFE"/>
<path d="M23 35.5C31.3577 40.5255 38.794 34.6699 40.5 32.5C42.206 30.3301 45.1892 24.8216 42.5 19.5" stroke="#00BFA6"/>
<path d="M20.441 26.384L21.491 24.788C21.645 24.5547 21.7477 24.3937 21.799 24.305C21.8503 24.2117 21.8853 24.1207 21.904 24.032C21.9227 23.9433 21.932 23.815 21.932 23.647V23.157C21.932 23.0123 21.8783 22.8887 21.771 22.786C21.6637 22.6833 21.5237 22.632 21.351 22.632H20.581V22.1H21.281C21.687 22.1 21.9973 22.2003 22.212 22.401C22.4313 22.597 22.541 22.8933 22.541 23.29V23.584C22.541 23.8173 22.5293 23.9947 22.506 24.116C22.4827 24.2373 22.4407 24.3517 22.38 24.459C22.324 24.5663 22.212 24.7483 22.044 25.005L21.078 26.468H22.681V27H20.441V26.384ZM25.9341 27V24.746H24.4921V27H23.8831V22.1H24.4921V24.228H25.9341V22.1H26.5431V27H25.9341ZM27.6617 22.73V22.1H28.3267V22.73H27.6617ZM27.6967 27V23.5H28.2917V27H27.6967ZM29.9725 27C29.8139 27 29.6739 26.944 29.5525 26.832C29.4359 26.72 29.3775 26.5427 29.3775 26.3V22.1H29.9725V26.265C29.9725 26.3397 29.9912 26.3933 30.0285 26.426C30.0659 26.4587 30.1289 26.475 30.2175 26.475H30.3575V27H29.9725ZM31.1625 23.5H31.7225V23.668C31.8672 23.556 32.0539 23.5 32.2825 23.5H32.3945C32.8052 23.5 33.1062 23.5887 33.2975 23.766C33.4889 23.9387 33.5845 24.2233 33.5845 24.62V25.88C33.5845 26.272 33.4865 26.5567 33.2905 26.734C33.0992 26.9113 32.8005 27 32.3945 27H31.7575V28.19H31.1625V23.5ZM32.2125 24.025C32.0585 24.025 31.9442 24.067 31.8695 24.151C31.7949 24.2303 31.7575 24.3167 31.7575 24.41V26.475H32.4645C32.6372 26.475 32.7679 26.4353 32.8565 26.356C32.9452 26.2767 32.9895 26.1647 32.9895 26.02V24.48C32.9895 24.3353 32.9452 24.2233 32.8565 24.144C32.7679 24.0647 32.6372 24.025 32.4645 24.025H32.2125ZM35.7552 27C35.3445 27 35.0435 26.9137 34.8522 26.741C34.6609 26.5637 34.5652 26.2767 34.5652 25.88V24.62C34.5652 24.2187 34.6515 23.9317 34.8242 23.759C34.9969 23.5863 35.2839 23.5 35.6852 23.5H35.8742C36.2055 23.5 36.4552 23.5933 36.6232 23.78C36.7959 23.962 36.8822 24.2303 36.8822 24.585V25.495H35.1602V26.02C35.1602 26.1647 35.2045 26.2767 35.2932 26.356C35.3819 26.4353 35.5125 26.475 35.6852 26.475H36.6582V27H35.7552ZM36.3012 24.97V24.445C36.3012 24.3237 36.2615 24.2233 36.1822 24.144C36.1029 24.0647 36.0025 24.025 35.8812 24.025H35.6152C35.4472 24.025 35.3282 24.0647 35.2582 24.144C35.1929 24.2187 35.1602 24.3307 35.1602 24.48V24.97H36.3012ZM37.8959 23.5H38.4559V23.689C38.6099 23.563 38.7966 23.5 39.0159 23.5H39.5269V24.06H38.9459C38.7919 24.06 38.6776 24.1113 38.6029 24.214C38.5283 24.3167 38.4909 24.417 38.4909 24.515V27H37.8959V23.5Z" fill="#747474"/>
</svg>
